<?xml version="1.0" standalone="no"?>
<!DOCTYPE svg PUBLIC "-//W3C//DTD SVG 20010904//EN"
 "http://www.w3.org/TR/2001/REC-SVG-20010904/DTD/svg10.dtd">
<svg version="1.0" xmlns="http://www.w3.org/2000/svg"
 width="512.000000pt" height="512.000000pt" viewBox="0 0 512.000000 512.000000"
 preserveAspectRatio="xMidYMid meet">
<metadata>
Created by potrace 1.11, written by Peter Selinger 2001-2013
</metadata>
<g transform="translate(0.000000,512.000000) scale(0.100000,-0.100000)"
fill="#000000" stroke="none">
<path d="M2315 5113 c-619 -66 -1192 -346 -1608 -783 -302 -317 -526 -721
-632 -1139 -58 -229 -69 -335 -69 -631 0 -296 11 -402 69 -631 113 -445 373
-894 701 -1209 382 -367 845 -599 1380 -692 113 -20 164 -22 404 -22 238 0
292 3 400 21 536 94 991 320 1370 680 338 322 600 769 715 1222 58 229 69 335
69 631 0 296 -11 402 -69 631 -84 332 -253 673 -474 959 -84 109 -312 337
-421 421 -287 222 -626 389 -960 474 -207 53 -329 67 -590 70 -135 2 -263 1
-285 -2z m-448 -324 c147 -58 408 -210 400 -233 -2 -6 -66 -198 -142 -426 -75
-228 -142 -420 -149 -427 -6 -6 -45 -25 -87 -41 -181 -72 -509 -240 -697 -358
l-83 -52 -182 108 c-100 59 -227 134 -282 167 -88 52 -100 62 -97 84 6 44 114
312 174 434 65 132 107 182 273 324 155 133 311 238 488 328 81 41 275 122
294 123 7 0 47 -14 90 -31z m1759 -88 c395 -196 724 -495 963 -875 54 -87 141
-246 141 -260 0 -3 -35 17 -78 44 -97 59 -239 132 -354 179 l-86 36 -377 425
c-348 392 -376 427 -371 453 3 16 6 38 6 48 0 11 4 19 8 19 5 0 71 -31 148
-69z m-300 -135 c63 -62 744 -840 744 -850 0 -24 -92 -286 -166 -472 l-77
-192 -41 -5 c-22 -3 -272 -29 -554 -58 l-514 -52 -41 49 c-144 169 -398 452
-468 522 l-83 83 154 464 c86 257 161 467 168 470 22 8 415 46 562 54 162 8
301 3 316 -13z m-2583 -1295 l277 -163 0 -104 c0 -184 29 -478 71 -713 11 -62
18 -119 15 -127 -3 -8 -103 -167 -222 -354 l-217 -340 -26 16 c-81 51 -191
137 -259 200 -77 71 -79 74 -105 161 -70 234 -97 399 -104 644 -9 294 27 557
93 676 62 112 174 274 188 271 6 -2 137 -77 289 -167z m3194 -538 c137 -210
195 -308 279 -468 l73 -140 -272 -507 c-150 -279 -276 -510 -280 -514 -21 -21
-415 -70 -688 -86 -180 -10 -211 -10 -223 3 -7 8 -133 222 -280 476 l-266 463
154 292 c86 161 181 342 213 403 l58 110 545 56 c300 31 555 57 568 58 19 1
40 -25 119 -146z m994 -480 c-63 -513 -303 -1004 -671 -1374 -137 -137 -281
-255 -291 -236 -3 6 -12 47 -18 90 -7 43 -23 117 -37 165 -13 48 -24 95 -24
105 0 10 127 256 283 546 l282 528 95 46 c114 55 279 152 341 200 24 19 46 33
48 31 2 -2 -2 -47 -8 -101z m-3531 -267 c228 -54 518 -109 697 -132 l51 -6
258 -447 c142 -245 262 -453 268 -462 7 -13 -23 -61 -148 -234 -87 -119 -165
-219 -173 -222 -9 -4 -268 38 -576 93 l-561 99 -64 80 c-82 103 -220 309 -306
457 l-67 117 223 350 c159 250 227 349 238 346 8 -3 80 -20 160 -39z m485
-1602 l430 -75 120 -54 c66 -29 138 -60 160 -68 l40 -16 -105 0 c-332 -1 -698
84 -1005 235 -71 35 -116 62 -100 59 17 -3 224 -39 460 -81z"/>
</g>
</svg>
